#Comment line ignore any data following # character 
#Hierarchical Translation and Rotation (.htr) file 
[Header]	
#Header keywords are followed by a single value 
FileType HTR		#Single word string
DataType HTRS		#Translation followed by rotation and scale data
FileVersion 1		#integer
NumSegments 84		#integer
NumFrames 2		#integer
DataFrameRate 30		#integer, data frame rate in this file
EulerRotationOrder ZYX
CalibrationUnits mm
RotationUnits Degrees
GlobalAxisofGravity Y
BoneLengthAxis Y
ScaleFactor 1.00
[SegmentNames&Hierarchy]
#CHILD	PARENT
MASTER GLOBAL
root MASTER
chest root
L_mid_tent01 root
R_mid_tent01 root
spine01 root
Bip01_Neck chest
L_humerus chest
R_humerus chest
weapon_bone chest
Bip01_Head Bip01_Neck
eye_left_bone Bip01_Head
eye_right_bone Bip01_Head
L_forearm L_humerus
L_front_hand L_forearm
L_weapon_bone L_forearm
L_front_hand01_01 L_front_hand
L_front_hand02_01 L_front_hand
L_front_hand03_01 L_front_hand
L_front_hand01_02 L_front_hand01_01
L_front_hand02_02 L_front_hand02_01
L_front_hand03_02 L_front_hand03_01
R_forearm R_humerus
R_front_hand R_forearm
R_weapon_bone R_forearm
R_front_hand01_01 R_front_hand
R_front_hand02_01 R_front_hand
R_front_hand03_01 R_front_hand
R_front_hand01_02 R_front_hand01_01
R_front_hand02_02 R_front_hand02_01
R_front_hand03_02 R_front_hand03_01
null_rope01_connect L_mid_tent01
Rope1_Seg01 null_rope01_connect
Rope1_Seg02 Rope1_Seg01
Rope1_Seg03 Rope1_Seg02
Rope1_Seg04 Rope1_Seg03
Rope1_Seg05 Rope1_Seg04
Rope1_Seg06 Rope1_Seg05
Rope1_Seg07 Rope1_Seg06
Rope1_Seg09 Rope1_Seg07
L_mid_hand01 Rope1_Seg09
L_mid_hand02 Rope1_Seg09
L_mid_hand03 Rope1_Seg09
null_rope02_connect R_mid_tent01
Rope2_Seg01 null_rope02_connect
Rope2_Seg02 Rope2_Seg01
Rope2_Seg03 Rope2_Seg02
Rope2_Seg04 Rope2_Seg03
Rope2_Seg05 Rope2_Seg04
Rope2_Seg06 Rope2_Seg05
Rope2_Seg07 Rope2_Seg06
Rope2_Seg09 Rope2_Seg07
R_mid_hand01 Rope2_Seg09
R_mid_hand02 Rope2_Seg09
R_mid_hand03 Rope2_Seg09
spine02 spine01
spine03 spine02
pelvis spine03
null_rope03_connect pelvis
null_rope04_connect pelvis
Rope3_Seg01 null_rope03_connect
Rope3_Seg02 Rope3_Seg01
Rope3_Seg03 Rope3_Seg02
Rope3_Seg04 Rope3_Seg03
Rope3_Seg05 Rope3_Seg04
Rope3_Seg06 Rope3_Seg05
Rope3_Seg07 Rope3_Seg06
Rope3_Seg08 Rope3_Seg07
Rope3_Seg09 Rope3_Seg08
R_rear_hand01 Rope3_Seg09
R_rear_hand02 Rope3_Seg09
R_rear_hand03 Rope3_Seg09
Rope4_Seg01 null_rope04_connect
Rope4_Seg02 Rope4_Seg01
Rope4_Seg03 Rope4_Seg02
Rope4_Seg04 Rope4_Seg03
Rope4_Seg05 Rope4_Seg04
Rope4_Seg06 Rope4_Seg05
Rope4_Seg07 Rope4_Seg06
Rope4_Seg08 Rope4_Seg07
Rope4_Seg09 Rope4_Seg08
L_rear_hand01 Rope4_Seg09
L_rear_hand02 Rope4_Seg09
L_rear_hand03 Rope4_Seg09
[BasePosition]
#SegmentName Tx, Ty, Tz, Rx, Ry, Rz, BoneLength
MASTER 0.000000 0.000000 0.000000 -90.000000 0.000000 0.000000 10.000000 
root 0.000000 0.000000 0.000000 0.000000 0.000000 0.000000 10.000000 
chest 0.000000 0.000000 0.000000 0.000000 0.000000 0.000000 10.000000 
L_mid_tent01 0.000000 0.000000 0.000000 0.000000 0.000000 0.000000 10.000000 
R_mid_tent01 0.000000 0.000000 0.000000 0.000000 0.000000 0.000000 10.000000 
spine01 0.000000 0.000000 0.000000 0.000000 0.000000 0.000000 10.000000 
Bip01_Neck 0.000000 0.000000 0.000000 0.000000 0.000000 0.000000 10.000000 
L_humerus 0.000000 0.000000 0.000000 0.000000 0.000000 0.000000 10.000000 
R_humerus 0.000000 0.000000 0.000000 0.000000 0.000000 0.000000 10.000000 
weapon_bone 0.000000 0.000000 0.000000 0.000000 0.000000 0.000000 10.000000 
Bip01_Head 0.000000 0.000000 0.000000 0.000000 0.000000 0.000000 10.000000 
eye_left_bone 0.000000 0.000000 0.000000 0.000000 0.000000 0.000000 10.000000 
eye_right_bone 0.000000 0.000000 0.000000 0.000000 0.000000 0.000000 10.000000 
L_forearm 0.000000 0.000000 0.000000 0.000000 0.000000 0.000000 10.000000 
L_front_hand 0.000000 0.000000 0.000000 0.000000 0.000000 0.000000 10.000000 
L_weapon_bone 0.000000 0.000000 0.000000 0.000000 0.000000 0.000000 10.000000 
L_front_hand01_01 0.000000 0.000000 0.000000 0.000000 0.000000 0.000000 10.000000 
L_front_hand02_01 0.000000 0.000000 0.000000 0.000000 0.000000 0.000000 10.000000 
L_front_hand03_01 0.000000 0.000000 0.000000 0.000000 0.000000 0.000000 10.000000 
L_front_hand01_02 0.000000 0.000000 0.000000 0.000000 0.000000 0.000000 10.000000 
L_front_hand02_02 0.000000 0.000000 0.000000 0.000000 0.000000 0.000000 10.000000 
L_front_hand03_02 0.000000 0.000000 0.000000 0.000000 0.000000 0.000000 10.000000 
R_forearm 0.000000 0.000000 0.000000 0.000000 0.000000 0.000000 10.000000 
R_front_hand 0.000000 0.000000 0.000000 0.000000 0.000000 0.000000 10.000000 
R_weapon_bone 0.000000 0.000000 0.000000 0.000000 0.000000 0.000000 10.000000 
R_front_hand01_01 0.000000 0.000000 0.000000 0.000000 0.000000 0.000000 10.000000 
R_front_hand02_01 0.000000 0.000000 0.000000 0.000000 0.000000 0.000000 10.000000 
R_front_hand03_01 0.000000 0.000000 0.000000 0.000000 0.000000 0.000000 10.000000 
R_front_hand01_02 0.000000 0.000000 0.000000 0.000000 0.000000 0.000000 10.000000 
R_front_hand02_02 0.000000 0.000000 0.000000 0.000000 0.000000 0.000000 10.000000 
R_front_hand03_02 0.000000 0.000000 0.000000 0.000000 0.000000 0.000000 10.000000 
null_rope01_connect 0.000000 0.000000 0.000000 0.000000 0.000000 0.000000 10.000000 
Rope1_Seg01 0.000000 0.000000 0.000000 0.000000 0.000000 0.000000 10.000000 
Rope1_Seg02 0.000000 0.000000 0.000000 0.000000 0.000000 0.000000 10.000000 
Rope1_Seg03 0.000000 0.000000 0.000000 0.000000 0.000000 0.000000 10.000000 
Rope1_Seg04 0.000000 0.000000 0.000000 0.000000 0.000000 0.000000 10.000000 
Rope1_Seg05 0.000000 0.000000 0.000000 0.000000 0.000000 0.000000 10.000000 
Rope1_Seg06 0.000000 0.000000 0.000000 0.000000 0.000000 0.000000 10.000000 
Rope1_Seg07 0.000000 0.000000 0.000000 0.000000 0.000000 0.000000 10.000000 
Rope1_Seg09 0.000000 0.000000 0.000000 0.000000 0.000000 0.000000 10.000000 
L_mid_hand01 0.000000 0.000000 0.000000 0.000000 0.000000 0.000000 10.000000 
L_mid_hand02 0.000000 0.000000 0.000000 0.000000 0.000000 0.000000 10.000000 
L_mid_hand03 0.000000 0.000000 0.000000 0.000000 0.000000 0.000000 10.000000 
null_rope02_connect 0.000000 0.000000 0.000000 0.000000 0.000000 0.000000 10.000000 
Rope2_Seg01 0.000000 0.000000 0.000000 0.000000 0.000000 0.000000 10.000000 
Rope2_Seg02 0.000000 0.000000 0.000000 0.000000 0.000000 0.000000 10.000000 
Rope2_Seg03 0.000000 0.000000 0.000000 0.000000 0.000000 0.000000 10.000000 
Rope2_Seg04 0.000000 0.000000 0.000000 0.000000 0.000000 0.000000 10.000000 
Rope2_Seg05 0.000000 0.000000 0.000000 0.000000 0.000000 0.000000 10.000000 
Rope2_Seg06 0.000000 0.000000 0.000000 0.000000 0.000000 0.000000 10.000000 
Rope2_Seg07 0.000000 0.000000 0.000000 0.000000 0.000000 0.000000 10.000000 
Rope2_Seg09 0.000000 0.000000 0.000000 0.000000 0.000000 0.000000 10.000000 
R_mid_hand01 0.000000 0.000000 0.000000 0.000000 0.000000 0.000000 10.000000 
R_mid_hand02 0.000000 0.000000 0.000000 0.000000 0.000000 0.000000 10.000000 
R_mid_hand03 0.000000 0.000000 0.000000 0.000000 0.000000 0.000000 10.000000 
spine02 0.000000 0.000000 0.000000 0.000000 0.000000 0.000000 10.000000 
spine03 0.000000 0.000000 0.000000 0.000000 0.000000 0.000000 10.000000 
pelvis 0.000000 0.000000 0.000000 0.000000 0.000000 0.000000 10.000000 
null_rope03_connect 0.000000 0.000000 0.000000 0.000000 0.000000 0.000000 10.000000 
null_rope04_connect 0.000000 0.000000 0.000000 0.000000 0.000000 0.000000 10.000000 
Rope3_Seg01 0.000000 0.000000 0.000000 0.000000 0.000000 0.000000 10.000000 
Rope3_Seg02 0.000000 0.000000 0.000000 0.000000 0.000000 0.000000 10.000000 
Rope3_Seg03 0.000000 0.000000 0.000000 0.000000 0.000000 0.000000 10.000000 
Rope3_Seg04 0.000000 0.000000 0.000000 0.000000 0.000000 0.000000 10.000000 
Rope3_Seg05 0.000000 0.000000 0.000000 0.000000 0.000000 0.000000 10.000000 
Rope3_Seg06 0.000000 0.000000 0.000000 0.000000 0.000000 0.000000 10.000000 
Rope3_Seg07 0.000000 0.000000 0.000000 0.000000 0.000000 0.000000 10.000000 
Rope3_Seg08 0.000000 0.000000 0.000000 0.000000 0.000000 0.000000 10.000000 
Rope3_Seg09 0.000000 0.000000 0.000000 0.000000 0.000000 0.000000 10.000000 
R_rear_hand01 0.000000 0.000000 0.000000 0.000000 0.000000 0.000000 10.000000 
R_rear_hand02 0.000000 0.000000 0.000000 0.000000 0.000000 0.000000 10.000000 
R_rear_hand03 0.000000 0.000000 0.000000 0.000000 0.000000 0.000000 10.000000 
Rope4_Seg01 0.000000 0.000000 0.000000 0.000000 0.000000 0.000000 10.000000 
Rope4_Seg02 0.000000 0.000000 0.000000 0.000000 0.000000 0.000000 10.000000 
Rope4_Seg03 0.000000 0.000000 0.000000 0.000000 0.000000 0.000000 10.000000 
Rope4_Seg04 0.000000 0.000000 0.000000 0.000000 0.000000 0.000000 10.000000 
Rope4_Seg05 0.000000 0.000000 0.000000 0.000000 0.000000 0.000000 10.000000 
Rope4_Seg06 0.000000 0.000000 0.000000 0.000000 0.000000 0.000000 10.000000 
Rope4_Seg07 0.000000 0.000000 0.000000 0.000000 0.000000 0.000000 10.000000 
Rope4_Seg08 0.000000 0.000000 0.000000 0.000000 0.000000 0.000000 10.000000 
Rope4_Seg09 0.000000 0.000000 0.000000 0.000000 0.000000 0.000000 10.000000 
L_rear_hand01 0.000000 0.000000 0.000000 0.000000 0.000000 0.000000 10.000000 
L_rear_hand02 0.000000 0.000000 0.000000 0.000000 0.000000 0.000000 10.000000 
L_rear_hand03 0.000000 0.000000 0.000000 0.000000 0.000000 0.000000 10.000000 
#Beginning of Data. Separated by tabs
#Fr	Tx	Ty	Tz	Rx	Ry	Rz	SF
[MASTER]
10 0.000000 0.000000 0.000000 0.001660 0.001660 0.001660 0.000000
11 0.000000 0.000000 0.000000 0.001660 0.001660 0.001660 0.000000
[root]
10 -37.283722 -49.535732 1501.101196 -80.359398 -18.651512 -102.878357 1502.380981
11 -37.882366 -51.398724 1502.621582 -81.501404 -19.901234 -101.057579 1503.977417
[chest]
10 -84.512650 -34.090519 0.000000 -3.224462 1.253590 147.703506 91.129311
11 -84.512650 -34.090519 0.000000 -3.722483 -3.905710 150.213394 91.129311
[L_mid_tent01]
10 27.299139 22.179062 -249.918701 1.920256 5.914119 78.868858 252.381683
11 27.299143 22.179056 -249.918701 2.095419 -2.463950 78.687622 252.381683
[R_mid_tent01]
10 23.228794 24.509907 226.238495 165.466492 -4.661792 74.354645 228.744751
11 23.228794 24.509907 226.238495 165.777695 -0.481382 72.672539 228.744751
[spine01]
10 -0.361383 -0.195265 0.000000 0.002062 0.001122 32.879829 0.410763
11 -0.361383 -0.195265 0.000000 0.002062 0.001122 32.879829 0.410763
[Bip01_Neck]
10 165.484543 71.581718 0.000119 176.643677 -1.657967 43.431911 180.302734
11 165.484543 71.581718 0.000119 176.643677 -1.657967 43.431911 180.302734
[L_humerus]
10 -13.983130 -135.272980 -120.471481 168.266068 36.836319 -66.845879 181.680161
11 -13.983130 -135.272980 -120.471481 165.705383 29.942268 -66.259277 181.680161
[R_humerus]
10 -13.983309 -135.273102 125.287651 179.224747 -32.383240 -81.761459 184.909012
11 -13.983309 -135.273102 125.287651 -179.117691 -24.151493 -83.465340 184.909012
[weapon_bone]
10 235.964890 -300.705902 0.000000 0.000000 -89.951546 -128.212341 382.234833
11 235.964890 -300.705902 0.000000 0.000000 -89.951546 -128.212341 382.234833
[Bip01_Head]
10 213.444199 185.715347 11.776939 22.543818 2.928386 -43.896080 283.173645
11 213.444199 185.715363 11.776938 25.060064 2.948256 -43.899540 283.173645
[eye_left_bone]
10 -24.626970 125.451866 -64.772606 0.000000 -90.000000 -99.840431 143.318359
11 -24.626970 125.451866 -64.772606 0.000000 -90.000000 -99.840431 143.318359
[eye_right_bone]
10 -24.626970 125.451866 64.327362 0.000000 -89.965736 80.156380 143.117676
11 -24.626970 125.451866 64.327362 0.000000 -89.980217 80.156380 143.117676
[L_forearm]
10 322.776093 0.000000 -0.000119 0.000396 -0.002314 -109.419975 322.776093
11 322.776093 0.000000 -0.000119 0.000396 -0.002314 -109.419975 322.776093
[L_front_hand]
10 241.149185 -0.042021 -3.300071 -178.667953 -1.835447 -27.422350 241.171753
11 241.149185 -0.042021 -3.300071 -178.667953 -1.835447 -27.422350 241.171753
[L_weapon_bone]
10 156.183838 0.000000 0.000000 0.000014 0.000007 0.000001 156.183838
11 156.183838 0.000000 0.000000 0.000014 0.000007 0.000001 156.183838
[L_front_hand01_01]
10 86.095154 20.947098 -0.655860 -0.291918 -0.522545 67.227623 88.609184
11 86.095154 20.947098 -0.655860 -0.282467 -0.528169 66.067474 88.609184
[L_front_hand02_01]
10 86.935165 -11.437475 24.513514 143.299133 -55.645813 -48.269917 91.046425
11 86.935165 -11.437475 24.513514 141.960785 -54.937954 -46.642345 91.046425
[L_front_hand03_01]
10 86.637497 -14.123976 -20.424902 -143.556335 53.862476 -50.232788 90.126129
11 86.637497 -14.123976 -20.424902 -142.303543 53.163303 -48.671032 90.126129
[L_front_hand01_02]
10 71.020905 -0.000179 0.000030 0.000316 -0.002326 -105.466431 71.020905
11 71.020905 -0.000179 0.000030 0.000315 -0.002326 -105.442802 71.020905
[L_front_hand02_02]
10 71.020927 -0.000119 0.000060 0.000316 -0.002326 -105.466431 71.020927
11 71.020927 -0.000119 0.000060 0.000315 -0.002326 -105.442802 71.020927
[L_front_hand03_02]
10 71.020905 -0.000060 0.000060 0.000316 -0.002326 -105.466431 71.020905
11 71.020905 -0.000060 0.000060 0.000315 -0.002326 -105.442802 71.020905
[R_forearm]
10 322.776428 -0.000060 0.000030 0.202103 0.065158 -108.062805 322.776428
11 322.776428 -0.000060 0.000030 0.202103 0.065158 -108.062805 322.776428
[R_front_hand]
10 238.847015 -0.006795 2.210259 -2.635298 -10.645461 -26.312506 238.857239
11 238.847015 -0.006795 2.210259 -2.635298 -10.645461 -26.312506 238.857239
[R_weapon_bone]
10 155.664093 0.002503 -0.000030 0.003487 0.001180 -90.988930 155.664078
11 155.664093 0.002503 -0.000030 0.003487 0.001180 -90.988930 155.664078
[R_front_hand01_01]
10 87.624611 14.231146 22.918642 -143.671631 -55.829556 48.823868 91.683487
11 87.624611 14.231146 22.918642 -141.947067 -54.924736 46.726738 91.683487
[R_front_hand02_01]
10 89.356956 14.367283 -19.491137 144.272369 54.223438 51.351048 92.579636
11 89.356956 14.367283 -19.491137 142.634140 53.329124 49.315857 92.579636
[R_front_hand03_01]
10 87.286232 -22.307278 -0.143439 0.102142 -0.441771 -67.781387 90.091743
11 87.286232 -22.307278 -0.143439 0.092230 -0.445770 -66.286453 90.091743
[R_front_hand01_02]
10 71.020905 0.000060 0.000119 0.002323 -0.000334 106.381714 71.020905
11 71.020905 0.000060 0.000119 0.002323 -0.000334 106.381714 71.020905
[R_front_hand02_02]
10 71.020844 -0.000030 -0.000119 0.002323 -0.000334 106.381714 71.020836
11 71.020844 -0.000030 -0.000119 0.002323 -0.000334 106.381714 71.020836
[R_front_hand03_02]
10 71.020905 0.000000 0.000030 0.002323 -0.000334 106.381714 71.020905
11 71.020905 0.000000 0.000030 0.002323 -0.000334 106.381714 71.020905
[null_rope01_connect]
10 328.732483 0.000000 -0.000238 -70.819664 -74.788216 101.011375 328.732483
11 328.732483 0.000000 -0.000238 -37.323021 -75.892654 69.459145 328.732483
[Rope1_Seg01]
10 -0.000032 0.000027 0.000107 -80.428116 60.202286 -83.808548 0.000115
11 -0.000032 0.000025 0.000102 -82.272545 54.206615 -89.631172 0.000110
[Rope1_Seg02]
10 139.999863 -0.000179 0.000000 -6.482476 8.666363 -2.447442 139.999863
11 139.999863 -0.000179 0.000000 -3.181308 4.529750 -1.990975 139.999863
[Rope1_Seg03]
10 139.999924 0.000060 -0.000060 -11.525373 13.215929 -8.312398 139.999924
11 139.999924 0.000060 -0.000060 -5.091856 7.220334 -4.690973 139.999924
[Rope1_Seg04]
10 139.999924 -0.000060 -0.000119 -19.890106 4.766347 10.016360 139.999924
11 139.999924 -0.000060 -0.000119 -13.964861 7.531942 -0.972030 139.999924
[Rope1_Seg05]
10 139.999832 0.000119 -0.000060 -1.861192 -12.737573 14.942234 139.999832
11 139.999832 0.000119 -0.000060 -3.974529 -7.092315 11.023120 139.999832
[Rope1_Seg06]
10 139.999954 0.000119 -0.000060 -0.920126 -3.618936 5.495742 139.999954
11 139.999954 0.000119 -0.000060 -1.337774 -2.664866 4.372653 139.999954
[Rope1_Seg07]
10 139.999985 0.000060 0.000000 -0.405009 -2.154206 3.205191 139.999985
11 139.999985 0.000060 0.000000 -0.736459 -1.417058 2.479095 139.999985
[Rope1_Seg09]
10 121.602913 0.000119 -0.000089 -89.793175 -1.359789 0.847147 121.602913
11 121.602913 0.000119 -0.000089 -89.793175 -1.359789 0.847147 121.602913
[L_mid_hand01]
10 103.859421 1.038730 8.195221 109.301483 -41.408253 -13.576799 104.187431
11 103.859421 1.038730 8.195221 110.016693 -43.583393 -14.630751 104.187431
[L_mid_hand02]
10 105.572853 -4.139662 -10.864139 -147.153671 31.943630 -38.737034 106.211075
11 105.572853 -4.139662 -10.864139 -148.402451 33.171711 -41.059566 106.211075
[L_mid_hand03]
10 104.641464 17.579376 -3.913581 -14.087292 12.528420 44.741467 106.179977
11 104.641464 17.579376 -3.913581 -13.575850 13.082139 47.042397 106.179977
[null_rope02_connect]
10 328.732849 0.000179 -0.000119 -132.325073 83.471443 10.988836 328.732849
11 328.732849 0.000179 -0.000119 -83.500465 86.587456 58.225109 328.732849
[Rope2_Seg01]
10 0.000008 0.000107 0.000000 110.272568 28.474113 -102.347290 0.000107
11 0.000000 0.000106 0.000000 129.831482 41.121723 -88.490303 0.000106
[Rope2_Seg02]
10 139.999741 -0.000060 -0.000119 8.042675 -5.450511 -9.882844 139.999756
11 139.999741 -0.000060 -0.000119 1.400072 -8.052949 1.618741 139.999756
[Rope2_Seg03]
10 140.000107 0.000030 0.000000 7.899996 -7.281210 -9.895779 140.000107
11 140.000107 0.000030 0.000000 1.253960 -8.778699 1.522595 140.000107
[Rope2_Seg04]
10 139.999802 0.000000 -0.000060 9.941826 -12.793560 -13.653704 139.999802
11 139.999802 0.000000 -0.000060 2.721015 -15.499151 -0.688217 139.999802
[Rope2_Seg05]
10 139.999985 -0.000060 0.000119 0.086223 -0.275147 -0.201323 139.999985
11 139.999985 -0.000060 0.000119 -0.894846 0.771569 3.542446 139.999985
[Rope2_Seg06]
10 139.999893 -0.000030 -0.000119 -8.612066 18.240173 14.752982 139.999893
11 139.999893 -0.000030 -0.000119 -5.090451 20.549107 9.694025 139.999893
[Rope2_Seg07]
10 139.999893 0.000060 -0.000060 -13.107904 15.394683 18.255108 139.999893
11 139.999893 0.000060 -0.000060 -8.199743 14.384199 9.133464 139.999893
[Rope2_Seg09]
10 121.338966 0.000089 -0.000060 33.793236 -1.359788 -0.847141 121.338966
11 121.338966 0.000089 -0.000060 33.793236 -1.359788 -0.847141 121.338966
[R_mid_hand01]
10 104.680779 11.144459 -10.335981 -34.826851 34.540035 41.908733 105.778534
11 104.680779 11.144459 -10.335981 -36.116535 33.174706 39.598408 105.778534
[R_mid_hand02]
10 104.070427 2.443552 8.231699 68.824310 -46.622631 16.260359 104.424065
11 104.070427 2.443552 8.231699 69.680679 -44.419243 15.065832 104.424065
[R_mid_hand03]
10 106.028137 -11.221827 -5.996406 -170.883774 12.973572 -51.735531 106.788818
11 106.028137 -11.221827 -5.996406 -170.354065 12.593579 -49.350628 106.788818
[spine02]
10 129.756927 0.001550 0.000119 0.360061 -4.044797 -12.915058 129.756927
11 129.756927 0.001550 0.000119 0.360061 -4.044797 -12.915058 129.756927
[spine03]
10 78.614075 0.081528 -4.898997 1.896495 3.831288 16.473045 78.766617
11 78.614075 0.081533 -4.898996 1.896495 3.831288 16.473045 78.766617
[pelvis]
10 169.435242 0.051022 0.000000 -0.060465 -0.180225 14.087930 169.435257
11 169.435242 0.051022 0.000000 -0.060465 -0.180225 14.087930 169.435257
[null_rope03_connect]
10 -1.257226 -2.466202 137.391083 -43.151909 -75.872299 102.414177 137.418976
11 -1.257226 -2.466202 137.391083 -41.382557 -77.811401 101.620674 137.418976
[null_rope04_connect]
10 -1.259640 -2.480268 -137.844437 -43.151909 -75.872299 102.414177 137.872513
11 -1.259640 -2.480268 -137.844437 -41.382557 -77.811401 101.620674 137.872513
[Rope3_Seg01]
10 0.000010 0.000027 -0.000107 -152.968521 39.266438 -107.870056 0.000111
11 0.000010 0.000025 -0.000102 -149.956589 40.187405 -102.602242 0.000105
[Rope3_Seg02]
10 139.999924 -0.000119 0.000060 0.022902 -5.554086 -7.178870 139.999924
11 139.999924 -0.000119 0.000060 -0.515965 -3.455030 -2.857861 139.999924
[Rope3_Seg03]
10 139.999924 -0.000119 0.000119 2.313721 -14.171283 -20.104256 139.999924
11 139.999924 -0.000119 0.000119 -0.529196 -6.533841 -5.553261 139.999924
[Rope3_Seg04]
10 139.999924 0.000119 0.000000 11.639153 -25.954172 -48.844444 139.999924
11 139.999924 0.000119 0.000000 3.859354 -21.777735 -21.330544 139.999924
[Rope3_Seg05]
10 139.999924 -0.000238 0.000060 25.592026 -17.336460 -1.985304 139.999924
11 139.999924 -0.000238 0.000060 5.310757 -16.875542 -10.739225 139.999924
[Rope3_Seg06]
10 139.999893 -0.000119 -0.000060 25.357450 -12.428012 13.326803 139.999893
11 139.999893 -0.000119 -0.000060 4.089765 -7.906611 -2.885640 139.999893
[Rope3_Seg07]
10 139.999771 0.000060 -0.000119 12.957234 -6.697199 10.020704 139.999771
11 139.999771 0.000060 -0.000119 2.839915 -4.439932 -1.702700 139.999771
[Rope3_Seg08]
10 139.999985 -0.000060 0.000000 3.847473 -1.380155 3.697288 139.999985
11 139.999985 -0.000060 0.000000 0.898044 -0.644595 -0.211121 139.999985
[Rope3_Seg09]
10 90.185997 -0.000179 -0.000060 89.793228 -1.359877 -0.847183 90.185997
11 90.185997 -0.000179 -0.000060 89.793228 -1.359877 -0.847183 90.185997
[R_rear_hand01]
10 103.366196 -6.073594 -10.757982 -165.718872 20.328495 -43.170486 104.101845
11 103.366196 -6.073594 -10.757982 -165.009155 19.819437 -41.100956 104.101845
[R_rear_hand02]
10 100.509819 12.039542 -7.992327 -29.668055 26.160351 40.761948 101.543350
11 100.509819 12.039542 -7.992327 -30.502344 25.155792 38.836960 101.543350
[R_rear_hand03]
10 101.539970 5.215704 5.435467 82.115250 -43.756126 9.334551 101.819031
11 101.539970 5.215704 5.435467 82.364601 -41.773376 8.967985 101.819031
[Rope4_Seg01]
10 0.000008 0.000053 -0.000175 61.034142 38.541756 -87.680473 0.000184
11 0.000006 0.000051 -0.000178 54.502029 43.666702 -100.482117 0.000185
[Rope4_Seg02]
10 139.999985 0.000060 0.000119 0.697302 -22.984777 -6.497459 139.999985
11 139.999985 0.000060 0.000119 -1.540728 -9.145907 4.383218 139.999985
[Rope4_Seg03]
10 139.999924 0.000000 -0.000238 3.336816 -27.062540 -2.440221 139.999924
11 139.999924 0.000000 -0.000238 -1.335432 -11.772957 8.744445 139.999924
[Rope4_Seg04]
10 139.999985 0.000000 0.000119 1.143719 -11.486694 -4.379369 139.999985
11 139.999985 0.000000 0.000119 0.318294 -8.190044 3.683420 139.999985
[Rope4_Seg05]
10 139.999802 -0.000060 -0.000119 -33.282116 -1.205312 -34.961681 139.999802
11 139.999802 -0.000060 -0.000119 -7.164202 3.104581 -31.277256 139.999802
[Rope4_Seg06]
10 139.999924 0.000000 0.000060 -43.677608 21.160610 -43.927731 139.999924
11 139.999924 0.000000 0.000060 -17.264963 7.438412 -41.594994 139.999924
[Rope4_Seg07]
10 139.999802 0.000000 0.000000 -5.875819 14.586528 -8.094946 139.999802
11 139.999802 0.000000 0.000000 -6.883245 6.618427 -15.137425 139.999802
[Rope4_Seg08]
10 139.999924 0.000000 0.000119 -2.088290 2.882812 -1.258241 139.999924
11 139.999924 0.000000 0.000119 -2.372016 1.253008 -2.171423 139.999924
[Rope4_Seg09]
10 90.185791 0.000060 0.000060 -135.617828 2.228885 0.850567 90.185791
11 90.185791 0.000060 0.000060 -135.617828 2.228885 0.850567 90.185791
[L_rear_hand01]
10 101.696655 -8.392275 -7.654577 -29.575453 -26.270130 139.027267 102.329041
11 101.696655 -8.392275 -7.654577 -28.015862 -27.942142 135.607529 102.329041
[L_rear_hand02]
10 102.726799 -1.568258 5.773216 82.088585 43.973633 170.624878 102.900848
11 102.726799 -1.568258 5.773216 81.577332 47.415264 169.913025 102.900848
[L_rear_hand03]
10 104.552910 9.721220 -10.420293 -165.800003 -20.376877 -136.601624 105.519653
11 104.552910 9.721220 -10.420293 -167.078079 -21.194330 -132.993347 105.519653
